<svg width="17" height="17" viewBox="0 0 17 17" fill="none" xmlns="http://www.w3.org/2000/svg">
<path fill-rule="evenodd" clip-rule="evenodd" d="M1.09864 9.6182L13.3803 9.6182L8.00957 15.0987C7.7995 15.3028 7.68061 15.5857 7.68061 15.8816C7.68061 16.1775 7.7995 16.4604 8.00957 16.6645C8.20962 16.8787 8.48703 17 8.77711 17C9.0672 17 9.34461 16.8787 9.54466 16.6645L16.6705 9.39465C17.1098 8.88239 17.1098 8.11761 16.6705 7.60535L9.54295 0.335524C9.3429 0.121265 9.06549 0 8.7754 0C8.48532 0 8.20791 0.121265 8.00786 0.335524H8.00786C7.79779 0.539574 7.6789 0.822519 7.6789 1.11839C7.6789 1.41427 7.79779 1.69722 8.00786 1.90127L13.3803 7.38093L1.09864 7.38093C0.802629 7.36263 0.513119 7.47459 0.303427 7.68847C0.0937309 7.90236 -0.0160465 8.19764 0.00189972 8.49956C-0.0160465 8.80148 0.0937309 9.09677 0.303423 9.31065C0.513119 9.52454 0.802628 9.6365 1.09864 9.6182Z" fill="#06033E"/>
</svg>
