<svg width="17" height="18" viewBox="0 0 17 18" fill="none" xmlns="http://www.w3.org/2000/svg">
<path fill-rule="evenodd" clip-rule="evenodd" d="M1.09864 10.2549L13.3803 10.2549L8.00957 15.7355C7.7995 15.9395 7.68061 16.2224 7.68061 16.5183C7.68061 16.8142 7.7995 17.0971 8.00957 17.3012C8.20962 17.5155 8.48703 17.6367 8.77711 17.6367C9.0672 17.6367 9.34461 17.5155 9.54466 17.3012L16.6705 10.0314C17.1098 9.51911 17.1098 8.75433 16.6705 8.24207L9.54295 0.972242C9.3429 0.757984 9.06549 0.636719 8.7754 0.636719C8.48532 0.636719 8.20791 0.757984 8.00786 0.972242H8.00786C7.79779 1.17629 7.6789 1.45924 7.6789 1.75511C7.6789 2.05099 7.79779 2.33394 8.00786 2.53798L13.3803 8.01765L1.09864 8.01765C0.802629 7.99934 0.513119 8.11131 0.303427 8.32519C0.0937309 8.53907 -0.0160465 8.83436 0.00189972 9.13628C-0.0160465 9.4382 0.0937309 9.73349 0.303423 9.94737C0.513119 10.1613 0.802628 10.2732 1.09864 10.2549Z" fill="#06033E"/>
</svg>
