<svg width="196" height="66" viewBox="0 0 196 66" fill="none" xmlns="http://www.w3.org/2000/svg">
<rect width="196" height="66" rx="10" fill="white"/>
<g clip-path="url(#clip0_2_9371)">
<path d="M25.001 20.015C29.0085 20.0204 33.0177 19.9584 37.0233 20.0531C40.111 20.1261 42.5303 22.2892 43.0511 25.2437C43.6406 28.5883 41.958 31.4441 39.3622 32.2104C39.2963 32.2298 39.2426 32.2929 39.154 32.3567C41.6282 33.0872 43.105 34.7762 43.5208 37.3068C44.2065 41.4819 41.9737 44.9126 37.7552 45.398C36.8196 45.5055 35.8695 45.5028 34.926 45.5078C31.6178 45.5259 28.3093 45.5254 25.0011 45.5319L25.001 20.015ZM30.3288 40.6603C30.3975 40.6847 30.4662 40.7302 30.5346 40.7302C32.1952 40.733 33.8587 40.7938 35.5157 40.7128C37.2303 40.6288 38.2499 39.542 38.2953 37.9404C38.341 36.3312 37.3993 35.1706 35.7201 34.9627C34.6587 34.8313 33.5744 34.8916 32.5004 34.876C31.7887 34.8658 31.0767 34.8741 30.3288 34.8741V40.6603ZM30.2924 30.1261C31.8405 30.1261 33.3103 30.1288 34.78 30.1237C35.0629 30.1227 35.3522 30.1252 35.6273 30.0681C36.6652 29.8531 37.4467 29.3043 37.7186 28.1886C38.152 26.4098 37.0527 24.873 35.2682 24.7819C34.4385 24.7396 33.6053 24.7702 32.7738 24.7693C31.9673 24.7683 31.1606 24.7691 30.3291 24.7691C30.3125 24.9533 30.2938 25.0657 30.2937 25.1781C30.2918 26.7939 30.2924 28.4098 30.2924 30.1261ZM120.56 46C119.933 45.8799 119.3 45.7878 118.681 45.6347C113.836 44.4369 111.367 40.1356 111.79 35.3828C112.145 31.4032 114.09 28.4938 117.794 27.147C122.967 25.2664 128.966 27.8053 129.851 34.9036C129.967 35.8414 129.962 36.7955 130.017 37.8262H116.66C116.969 39.5749 117.824 40.8017 119.316 41.4538C121.738 42.5135 124.007 41.9853 126.148 40.5648C126.274 40.4809 126.391 40.3812 126.514 40.2909C126.526 40.282 126.549 40.2897 126.636 40.2897C127.29 41.2836 127.966 42.31 128.726 43.4634C128.036 43.9067 127.401 44.3872 126.707 44.747C125.43 45.4089 124.056 45.7598 122.629 45.8824C122.467 45.8963 122.309 45.9595 122.148 45.9999L120.56 46ZM125.407 34.4673C125.5 32.1757 123.383 30.4255 120.702 30.5346C118.472 30.6253 116.49 32.5727 116.729 34.4673H125.407ZM139.74 46C138.968 45.84 138.185 45.7269 137.429 45.5118C133.818 44.4843 131.327 41.3347 130.999 37.4854C130.689 33.8544 131.71 30.7771 134.536 28.4865C138.819 25.0154 147.235 25.8028 148.907 34.0155C149.027 34.604 149.097 35.208 149.134 35.8085C149.172 36.4461 149.142 37.0884 149.142 37.8258H135.872C135.987 38.8525 136.374 39.678 137.016 40.3607C138.483 41.9231 140.314 42.2171 142.294 41.8589C143.555 41.6306 144.719 41.1365 145.767 40.2106L147.903 43.4404C147.347 43.8243 146.843 44.2302 146.29 44.5425C144.914 45.3188 143.425 45.7284 141.866 45.8789C141.685 45.8963 141.508 45.9585 141.328 45.9998C140.798 46 140.269 46 139.74 46ZM135.904 34.4641H144.59C144.702 32.2427 142.635 30.4783 140.038 30.5307C137.733 30.5769 135.738 32.4569 135.904 34.4641ZM51.8981 46C51.3304 45.8801 50.759 45.7763 50.1957 45.6377C46.706 44.78 44.6448 42.086 44.6416 38.3828C44.6389 34.8331 44.6411 31.2833 44.6411 27.7337V27.0976H49.358V27.7754C49.358 31.1302 49.3675 34.4848 49.3537 37.8394C49.3472 39.361 49.7985 40.6496 51.1965 41.3118C52.7117 42.0294 54.2633 42.0032 55.6651 40.9736C56.6918 40.2196 56.982 39.0655 56.9842 37.8255C56.9904 34.4903 56.9865 31.1551 56.9865 27.82V27.0866H61.652L61.6522 27.744C61.6522 31.2548 61.6538 34.7655 61.6517 38.2763C61.6493 42.5126 59.0927 45.4247 54.9955 45.8687C54.7932 45.8907 54.5952 45.9549 54.3951 45.9996C53.5627 46 52.7303 46 51.8981 46ZM96.4362 45.4733V20.0322H113.593V22.5001C113.593 23.0462 113.558 23.5956 113.603 24.1377C113.648 24.6776 113.438 24.7823 112.957 24.7795C109.571 24.7596 106.186 24.769 102.8 24.769H101.729V30.1261H102.368C104.922 30.1261 107.475 30.1412 110.028 30.1137C110.544 30.1082 110.665 30.2774 110.653 30.78C110.622 32.1205 110.642 33.4622 110.642 34.8699H101.691V45.4733H96.4362ZM150.337 45.4633V44.794C150.337 39.1005 150.337 33.4073 150.338 27.7138C150.338 26.9665 150.339 26.9599 151.086 26.9671C153.675 26.9916 156.274 26.8779 158.85 27.0835C162.519 27.3763 165.391 29.0809 166.751 32.817C168.133 36.6133 167.08 40.946 164.272 43.3197C162.617 44.7181 160.671 45.4067 158.575 45.4846C155.913 45.584 153.245 45.516 150.579 45.518C150.525 45.5181 150.471 45.4944 150.337 45.4633ZM154.836 41.5587C155.74 41.5587 156.587 41.5589 157.433 41.5587C160.479 41.5576 162.397 39.7872 162.738 36.6614C162.983 34.4171 161.806 32.1849 159.932 31.3923C158.281 30.6945 156.555 31.0655 154.836 30.9669C154.836 34.5309 154.836 37.996 154.836 41.5587ZM71.1607 31.2532H63.1689V27.0785H77.6169C77.6169 27.8661 77.5785 28.6576 77.6281 29.4435C77.6737 30.1679 77.4601 30.7275 77.0166 31.2963C74.6137 34.3802 72.2487 37.4953 69.8713 40.6003C69.7438 40.7668 69.6224 40.9384 69.4237 41.2091H77.7128V45.4639H63.1251C63.1251 44.3017 63.1086 43.14 63.1408 41.9796C63.1463 41.7803 63.3404 41.5727 63.4772 41.3933C65.9162 38.1895 68.3601 34.9899 70.8015 31.788C70.9031 31.6544 70.9897 31.5085 71.1607 31.2532ZM79.0038 31.2579C79.0038 29.9404 79.0027 28.7329 79.0055 27.5251C79.0057 27.3919 79.0271 27.2588 79.0423 27.086H93.4455C93.4455 28.2083 93.4575 29.3127 93.433 30.4162C93.4292 30.5826 93.2701 30.7578 93.1563 30.9071C90.6762 34.1531 88.1921 37.3958 85.7102 40.6403C85.5876 40.8006 85.4782 40.9717 85.2873 41.2458H86.0104C88.3547 41.2458 90.6993 41.256 93.0439 41.237C93.4795 41.2336 93.6421 41.344 93.6294 41.8227C93.5975 43.027 93.6189 44.233 93.6189 45.4746H79.0179C79.0179 44.2719 79.0086 43.0891 79.0297 41.907C79.0322 41.7588 79.183 41.6041 79.2858 41.4693C81.6673 38.3417 84.0519 35.2167 86.4356 32.0908C86.6177 31.8519 86.7958 31.6098 87.0591 31.2577L79.0038 31.2579Z" fill="#B0B7C3"/>
</g>
<defs>
<clipPath id="clip0_2_9371">
<rect width="143" height="26" fill="white" transform="translate(25.001 20)"/>
</clipPath>
</defs>
</svg>
