<svg width="196" height="66" viewBox="0 0 196 66" fill="none" xmlns="http://www.w3.org/2000/svg">
<rect width="196" height="66" rx="10" fill="white"/>
<g clip-path="url(#clip0_2_9302)">
<path d="M39.5605 23.5468L30.7808 29.0803L39.5605 34.6137L30.7808 40.1471L22.001 34.5676L30.7808 29.0342L22.001 23.5468L30.7808 18.0134L39.5605 23.5468ZM30.7341 41.8994L39.5138 36.3659L48.2937 41.8994L39.5138 47.4328L30.7341 41.8994ZM39.5605 34.5676L48.3404 29.0342L39.5605 23.5468L48.2937 18.0134L57.0735 23.5468L48.2937 29.0803L57.0735 34.6137L48.2937 40.1471L39.5605 34.5676Z" fill="#B0B7C3"/>
<path d="M63.9384 23.5473H71.037C75.567 23.5473 79.3031 26.1296 79.3031 32.0319V33.2769C79.3031 39.2253 75.8005 41.8998 71.1771 41.8998H63.9384V23.5473ZM67.9081 26.8674V38.5336H70.9436C73.5121 38.5336 75.2401 36.8736 75.2401 33.1847V32.2163C75.2401 28.5274 73.4187 26.8674 70.8035 26.8674H67.9081ZM81.4046 27.0518H84.5803L85.094 30.5102C85.7011 28.1585 87.2423 26.9135 90.0443 26.9135H91.0251V30.879H89.3905C86.1682 30.879 85.3742 31.9858 85.3742 35.1214V41.946H81.4514V27.0518H81.4046ZM91.8189 34.7986V34.3835C91.8189 29.4035 95.0413 26.6829 99.4313 26.6829C103.915 26.6829 107.043 29.4035 107.043 34.3835V34.7986C107.043 39.6865 104.008 42.3148 99.4313 42.3148C94.5744 42.2687 91.8189 39.6865 91.8189 34.7986ZM103.027 34.7525V34.3835C103.027 31.6169 101.626 29.9569 99.3846 29.9569C97.1896 29.9569 95.7419 31.4785 95.7419 34.3835V34.7525C95.7419 37.427 97.1429 38.9486 99.3846 38.9486C101.626 38.9025 103.027 37.427 103.027 34.7525ZM109.099 27.0518H112.367L112.741 29.8646C113.535 27.974 115.216 26.6829 117.692 26.6829C121.52 26.6829 124.043 29.4035 124.043 34.4297V34.8447C124.043 39.7325 121.241 42.3148 117.692 42.3148C115.31 42.3148 113.675 41.2542 112.881 39.5481V47.0644H109.051L109.099 27.0518ZM120.073 34.7525V34.4297C120.073 31.4785 118.532 30.003 116.477 30.003C114.282 30.003 112.834 31.663 112.834 34.4297V34.7064C112.834 37.3347 114.235 38.9948 116.43 38.9948C118.672 38.9486 120.073 37.5192 120.073 34.7525ZM129.834 39.1792L129.506 41.8998H126.145V22.0717H129.973V29.6802C130.814 27.7435 132.496 26.6829 134.877 26.6829C138.473 26.729 141.135 29.173 141.135 34.1069V34.568C141.135 39.502 138.614 42.3148 134.784 42.3148C132.262 42.2687 130.628 41.1159 129.834 39.1792ZM137.119 34.568V34.1991C137.119 31.4785 135.624 29.9569 133.523 29.9569C131.375 29.9569 129.88 31.663 129.88 34.2452V34.568C129.88 37.3347 131.328 38.9486 133.476 38.9486C135.764 38.9486 137.119 37.5192 137.119 34.568ZM142.816 34.7986V34.3835C142.816 29.4035 146.039 26.6829 150.429 26.6829C154.912 26.6829 158.041 29.4035 158.041 34.3835V34.7986C158.041 39.6865 154.959 42.3148 150.429 42.3148C145.572 42.2687 142.816 39.6865 142.816 34.7986ZM154.071 34.7525V34.3835C154.071 31.6169 152.67 29.9569 150.429 29.9569C148.234 29.9569 146.786 31.4785 146.786 34.3835V34.7525C146.786 37.427 148.187 38.9486 150.429 38.9486C152.67 38.9025 154.071 37.427 154.071 34.7525ZM163.179 34.1991L157.901 27.0518H162.431L165.466 31.5246L168.548 27.0518H173.032L167.662 34.153L173.312 41.8998H168.876L165.42 36.9659L162.057 41.8998H157.434L163.179 34.1991Z" fill="#B0B7C3"/>
</g>
<defs>
<clipPath id="clip0_2_9302">
<rect width="152" height="30" fill="white" transform="translate(22.001 18)"/>
</clipPath>
</defs>
</svg>
