<svg width="29" height="29" viewBox="0 0 29 29" fill="none" xmlns="http://www.w3.org/2000/svg">
<path d="M9.14286 2H19.8571C21.7515 2 23.5684 2.75255 24.9079 4.09209C26.2475 5.43164 27 7.24845 27 9.14286V19.8571C27 21.7515 26.2475 23.5684 24.9079 24.9079C23.5684 26.2475 21.7515 27 19.8571 27H9.14286C7.24845 27 5.43164 26.2475 4.09209 24.9079C2.75255 23.5684 2 21.7515 2 19.8571V9.14286C2 7.24845 2.75255 5.43164 4.09209 4.09209C5.43164 2.75255 7.24845 2 9.14286 2ZM14.5 19.8571C13.0792 19.8571 11.7166 19.2927 10.7119 18.2881C9.70727 17.2834 9.14286 15.9208 9.14286 14.5C9.14286 13.0792 9.70727 11.7166 10.7119 10.7119C11.7166 9.70727 13.0792 9.14286 14.5 9.14286C15.9208 9.14286 17.2834 9.70727 18.2881 10.7119C19.2927 11.7166 19.8571 13.0792 19.8571 14.5C19.8571 15.9208 19.2927 17.2834 18.2881 18.2881C17.2834 19.2927 15.9208 19.8571 14.5 19.8571Z" stroke="url(#paint0_linear_39_67)" stroke-width="3"/>
<ellipse cx="21.9371" cy="7.65477" rx="1.19048" ry="1.19048" fill="url(#paint1_linear_39_67)"/>
<defs>
<linearGradient id="paint0_linear_39_67" x1="13.0096" y1="-19.7256" x2="43.5155" y2="75.5125" gradientUnits="userSpaceOnUse">
<stop offset="0.1875" stop-color="#7342E4"/>
<stop offset="1" stop-color="#FCD9FB"/>
</linearGradient>
<linearGradient id="paint1_linear_39_67" x1="23.574" y1="5.92486" x2="14.8028" y2="8.27535" gradientUnits="userSpaceOnUse">
<stop stop-color="#7342E4"/>
<stop offset="1" stop-color="#FCD9FB"/>
</linearGradient>
</defs>
</svg>
