<svg width="17" height="18" viewBox="0 0 17 18" fill="none" xmlns="http://www.w3.org/2000/svg">
<path fill-rule="evenodd" clip-rule="evenodd" d="M15.9014 8.01852H3.61974L8.99043 2.53799C9.2005 2.33394 9.31939 2.05099 9.31939 1.75511C9.31939 1.45924 9.2005 1.17629 8.99043 0.972244C8.79038 0.757985 8.51297 0.636719 8.22289 0.636719C7.9328 0.636719 7.65539 0.757985 7.45534 0.972244L0.329514 8.24207C-0.109838 8.75433 -0.109838 9.51911 0.329514 10.0314L7.45705 17.3012C7.6571 17.5155 7.93451 17.6367 8.2246 17.6367C8.51468 17.6367 8.79209 17.5155 8.99214 17.3012H8.99214C9.20221 17.0971 9.3211 16.8142 9.3211 16.5183C9.3211 16.2224 9.20221 15.9395 8.99214 15.7355L3.61974 10.2558H15.9014C16.1974 10.2741 16.4869 10.1621 16.6966 9.94825C16.9063 9.73436 17.016 9.43908 16.9981 9.13715C17.016 8.83524 16.9063 8.53995 16.6966 8.32606C16.4869 8.11218 16.1974 8.00022 15.9014 8.01852Z" fill="#06033E"/>
</svg>
