<svg width="196" height="66" viewBox="0 0 196 66" fill="none" xmlns="http://www.w3.org/2000/svg">
<rect width="196" height="66" rx="10" fill="white"/>
<path d="M48.0965 31.7081C48.3953 31.7081 48.6941 31.7081 48.9929 31.7081C49.183 31.3006 49.183 30.7031 48.9929 30.024C48.8027 29.0189 48.5039 28.3399 47.9063 28.4214C47.3087 28.53 47.3087 29.3177 47.4989 30.3228C47.5804 30.9204 47.7977 31.4093 48.0965 31.7081Z" fill="#B0B7C3"/>
<path d="M42.8273 32.6047C43.2348 32.7948 43.5335 32.9035 43.615 32.7948C43.7237 32.6862 43.615 32.6047 43.5064 32.3874C43.3162 31.9799 42.8001 31.6811 42.4199 31.491C41.4148 31.0835 40.3283 31.1922 39.4319 31.8984C39.1331 32.0886 38.8343 32.3874 38.943 32.6047C38.943 32.7133 39.0516 32.7133 39.1331 32.7133C39.3233 32.7133 40.2196 32.3059 41.2247 32.2244C41.8223 32.1972 42.4199 32.4145 42.8273 32.6047Z" fill="#B0B7C3"/>
<path d="M41.9313 33.0935C41.3337 33.2022 41.0349 33.3923 40.8448 33.5824C40.6546 33.7726 40.546 33.8812 40.546 33.9899V34.0985H40.6546C40.7633 34.0985 41.0621 33.9899 41.0621 33.9899C41.8498 33.6911 42.3659 33.6911 42.8548 33.7997C43.1536 33.7997 43.2623 33.9084 43.3438 33.7997C43.3438 33.7997 43.3438 33.6911 43.3438 33.6096C43.3166 33.3108 42.719 33.012 41.9313 33.0935Z" fill="#B0B7C3"/>
<path d="M42.2294 33.7998C42.4195 33.3924 42.4195 32.496 42.2294 31.8169C42.0392 30.8119 41.7404 30.2143 41.0342 30.2143C40.4366 30.3229 40.4366 31.1107 40.6268 32.1972C40.7354 32.9034 41.0342 33.2837 41.1157 33.5825C41.6318 34.3974 41.9306 34.1801 42.2294 33.7998Z" fill="#B0B7C3"/>
<path d="M46.3039 34.8863C46.7113 35.0764 47.0916 34.9949 47.3089 34.6961C47.4176 34.3973 47.2003 33.9899 46.82 33.7997C46.4125 33.6096 46.0322 33.6911 45.8149 33.9899C45.5976 34.2887 45.8964 34.6961 46.3039 34.8863Z" fill="#B0B7C3"/>
<path d="M48.7758 32.7133C48.477 32.7133 48.1782 33.0121 48.1782 33.501C48.1782 33.9085 48.3684 34.2888 48.7758 34.2888C49.0746 34.2888 49.3734 33.99 49.3734 33.501C49.2919 33.0936 49.0746 32.7133 48.7758 32.7133Z" fill="#B0B7C3"/>
<path d="M27.724 40.4548C27.6153 40.3461 27.5338 40.3461 27.4252 40.4548C27.3165 40.4548 27.235 40.4548 27.1264 40.4548C26.9363 40.4548 26.7189 40.3461 26.6375 40.156C26.556 39.9659 26.5288 39.6671 26.6375 39.2596L26.7461 39.0695C27.0449 38.4719 27.4524 37.5755 26.9363 36.6791C26.5288 35.9729 26.0399 35.5926 25.3336 35.4839C24.6274 35.3753 23.9483 35.6741 23.5409 36.1902C22.8346 36.9779 22.7531 37.9829 22.8346 38.3632C22.8346 38.4719 22.9433 38.5534 23.0248 38.5534C23.1334 38.5534 23.3236 38.4447 23.4322 38.1459V38.0373C23.4322 37.8471 23.5409 37.6298 23.731 37.331C23.9211 37.0322 24.2199 36.8421 24.5187 36.8421C24.8175 36.7334 25.225 36.8421 25.5238 37.0322C26.0127 37.331 26.23 37.9286 26.0127 38.5262C25.7139 38.825 25.6053 39.3139 25.6053 39.83C25.7139 40.7264 26.3115 41.1339 26.8004 41.2154C27.2894 41.2154 27.6968 40.9166 27.6968 40.7264C27.8055 40.5635 27.724 40.5635 27.724 40.4548Z" fill="#B0B7C3"/>
<path d="M56.6259 38.7707C56.6259 38.6621 56.5173 38.2818 56.3271 37.6842L55.9197 36.7878C56.6259 35.7828 56.6259 34.8049 56.5173 34.316C56.4086 33.7184 56.1098 33.1208 55.6209 32.5232C55.1319 31.9256 53.9368 31.328 52.4428 30.9206L51.6551 30.7304C51.6551 30.7304 51.6551 28.829 51.5464 28.0413C51.5464 27.4437 51.4377 26.5473 51.139 25.6509C50.8402 24.4557 50.2426 23.3692 49.4548 22.663C51.4377 20.5714 52.7416 18.181 52.7416 16.1981C52.7416 12.4224 48.0695 11.2273 42.2023 13.6176L41.0071 14.1066C41.0071 14.1066 38.834 11.9335 38.7254 11.9335C32.2877 6.17491 11.7252 29.1278 18.2715 34.6962L19.6568 35.8914C19.2494 36.8964 19.1679 37.983 19.2494 39.1782C19.4395 40.6721 20.2544 42.1661 21.4225 43.3613C22.6176 44.4478 24.1931 45.154 25.7957 45.154C28.3762 51.1299 34.2435 54.6883 41.0886 54.9056C48.4498 55.0958 54.6973 51.6189 57.2778 45.4528C57.468 45.0454 58.1742 43.0625 58.1742 41.2697C58.3372 39.4498 57.3322 38.7707 56.6259 38.7707ZM26.4205 43.4428C26.2303 43.4428 25.9315 43.5514 25.7142 43.4428C23.5412 43.3341 21.0422 41.3512 20.852 38.9609C20.6619 36.3804 21.9386 34.3974 24.3289 33.8813C24.6277 33.7727 24.9265 33.7727 25.334 33.7727C26.6378 33.8813 28.6207 34.8592 29.1096 37.7385C29.4899 40.4548 28.9195 43.0353 26.4205 43.4428ZM23.9486 32.3059C22.4547 32.6047 21.178 33.3924 20.3631 34.5876C19.8742 34.1801 18.9778 33.3924 18.8691 33.0936C17.5653 30.7032 20.2544 25.9497 22.1559 23.342C26.7193 16.7957 33.9718 11.8248 37.2586 12.6941C37.8562 12.8842 39.6489 14.9758 39.6489 14.9758C39.6489 14.9758 36.2807 16.8772 33.1841 19.4577C29.001 22.5543 25.8229 27.2264 23.9486 32.3059ZM47.3904 42.4377L47.4991 42.3291C47.4991 42.2204 47.3904 42.2204 47.3904 42.2204C47.3904 42.2204 43.9136 42.7094 40.6268 41.5142C41.0343 40.319 41.9306 40.7265 43.3975 40.9166C45.978 41.1067 48.3683 40.7265 50.0524 40.2104C51.5464 39.8029 53.5293 38.9065 55.0233 37.7385C55.5122 38.825 55.7295 40.1289 55.7295 40.1289C55.7295 40.1289 56.137 40.0202 56.4358 40.2375C56.7346 40.4277 56.9247 40.8351 56.8432 41.8401C56.5444 43.8231 55.648 45.317 54.3714 46.811C53.5836 47.7074 52.47 48.4951 51.3019 49.0927C50.7043 49.3915 49.9981 49.6903 49.319 49.8804C43.9407 51.5646 38.5896 49.7718 36.9055 45.6973C36.7968 45.3985 36.6067 45.0997 36.6067 44.6923C35.9004 42.0031 36.498 38.825 38.5081 36.8421C38.6167 36.7335 38.6982 36.5433 38.6982 36.3532C38.6982 36.163 38.5896 36.0544 38.5081 35.9457C37.8018 34.9407 35.4386 33.2566 35.9276 29.9698C36.2264 27.5795 38.3179 26.004 40.1922 26.0855H40.6811C41.4689 26.0855 42.2838 26.2757 42.8542 26.2757C43.9407 26.2757 45.0272 26.167 46.2224 25.1891C46.6299 24.8903 46.9287 24.5915 47.5263 24.4829C47.6349 24.4829 47.7164 24.3742 48.0152 24.4829C48.314 24.4829 48.6128 24.5915 48.8029 24.7817C49.808 25.4879 49.8895 26.9547 49.9981 28.1499C49.9981 28.8561 50.1068 30.4316 50.1068 30.8391C50.2154 31.8441 50.4055 32.0342 51.0031 32.2244C51.3019 32.333 51.6007 32.4145 52.0082 32.5232C53.312 32.9306 54.0997 33.2294 54.5887 33.7184C54.8875 34.0172 54.9961 34.316 55.0776 34.6147C55.2678 35.7013 54.1812 37.0866 51.4921 38.3904C48.5041 39.7757 45.0272 40.0745 42.5554 39.7757L41.659 39.6671C39.6761 39.3683 38.5896 41.9488 39.7576 43.6329C40.5453 44.7194 42.6369 45.5343 44.6198 45.5343C49.4005 45.5343 53.0675 43.5514 54.3714 41.7587L54.48 41.5685C54.5887 41.4599 54.48 41.3784 54.3714 41.4599C53.2848 42.2476 48.314 45.2355 43.0443 44.3392C43.0443 44.3392 42.4467 44.2305 41.8492 44.0404C41.3602 43.8502 40.4638 43.4428 40.2465 42.4377C44.7013 43.7416 47.3904 42.4377 47.3904 42.4377ZM32.4779 23.3692C34.0805 21.4678 36.1449 19.7837 37.9377 18.8873C38.0463 18.8873 38.0463 18.8873 38.0463 18.9959C37.9377 19.2947 37.6389 19.7837 37.5574 20.1911C37.5574 20.2998 37.666 20.2998 37.666 20.2998C38.7526 19.512 40.7355 18.6971 42.4467 18.6156C42.5554 18.6156 42.5554 18.7243 42.5554 18.7243C42.2566 18.9144 42.0665 19.2132 41.7677 19.512C41.7677 19.512 41.7677 19.6207 41.8763 19.6207C43.0715 19.6207 44.7556 20.0281 45.8421 20.7072C45.9508 20.7072 45.8421 20.8973 45.7335 20.8973C44.0494 20.4899 41.3602 20.1911 38.4809 20.8973C35.9004 21.4949 33.999 22.5 32.6137 23.4778C32.4779 23.4507 32.3964 23.4507 32.4779 23.3692Z" fill="#B0B7C3"/>
<path d="M174.704 27.8239C172.232 27.8239 171.119 29.6167 170.63 30.7032C170.331 31.4094 170.331 31.5996 170.141 31.5996C169.842 31.5996 170.032 31.002 170.249 30.4044C170.548 29.1006 170.358 28.1227 170.358 28.1227H166.881V44.828H171.662V39.5584C172.259 40.5634 173.265 41.5413 174.84 41.5413C178.317 41.5413 180.001 38.662 180.001 34.6962C179.974 30.2143 177.882 27.8239 174.704 27.8239ZM173.427 38.3632C172.341 38.3632 171.526 36.9779 171.526 35.0765C171.526 33.1751 172.314 31.7897 173.427 31.7897C174.731 31.7897 175.329 32.9849 175.329 35.0765C175.302 37.2767 174.813 38.3632 173.427 38.3632Z" fill="#B0B7C3"/>
<path d="M80.2035 27.8239C78.1119 27.8239 77.1341 29.5081 76.618 30.5131C76.3192 31.1107 76.3192 31.5996 76.0204 31.5996C75.7216 31.5996 75.9117 31.1922 75.7216 30.2958C75.4228 29.1006 74.4177 27.8239 72.3533 27.8239C70.1803 27.8239 69.1753 29.7254 68.7678 30.7032C68.469 31.4095 68.469 31.5996 68.2789 31.5996C67.9801 31.5996 68.1702 31.002 68.3875 30.4044C68.6863 29.1006 68.4962 28.1227 68.4962 28.1227H65.0193V41.2425H69.6914V34.6962C69.6914 33.3924 70.1803 31.8169 71.1853 31.8169C72.2719 31.8169 72.4892 32.6047 72.4892 34.0986V41.2425H77.2699V34.6962C77.2699 33.501 77.7588 31.8169 78.7638 31.8169C79.8504 31.8169 80.0677 33.0121 80.0677 34.0986V41.1611H84.6311V33.4196C84.5768 30.0242 83.3816 27.8239 80.2035 27.8239ZM160.905 27.8239C158.814 27.8239 157.836 29.5081 157.32 30.5131C157.021 31.1107 157.021 31.5996 156.722 31.5996C156.423 31.5996 156.613 31.1107 156.423 30.2958C156.016 29.1006 155.228 27.8239 153.055 27.8239C150.882 27.8239 149.877 29.7254 149.47 30.7032C149.171 31.4095 149.171 31.5996 148.981 31.5996C148.682 31.5996 148.872 31.002 149.089 30.4044C149.388 29.1006 149.198 28.1227 149.198 28.1227H145.721V41.2425H150.502V34.6962C150.502 33.3924 150.991 31.8169 151.996 31.8169C153.082 31.8169 153.3 32.6047 153.3 34.0986V41.2425H158.08V34.6962C158.08 33.501 158.569 31.8169 159.574 31.8169C160.661 31.8169 160.878 33.0121 160.878 34.0986V41.1611H165.55V33.4196C165.279 30.0242 164.083 27.8239 160.905 27.8239ZM92.7257 27.8239C89.0587 27.8239 86.451 29.1278 86.451 29.1278V33.0936C86.451 33.0936 89.3303 31.4095 91.7207 31.4095C93.6221 31.4095 93.8122 32.4145 93.7036 33.3109C93.7036 33.3109 93.2147 33.2023 91.5305 33.2023C87.6462 33.2023 85.6633 34.995 85.6633 37.7657C85.6633 40.4548 87.8363 41.5413 89.7378 41.5413C92.4269 41.5413 93.6221 39.7486 94.0024 38.8522C94.3012 38.2546 94.3012 37.8472 94.4913 37.8472C94.7901 37.8472 94.6815 38.1459 94.6815 38.7435C94.6815 39.7486 94.6815 40.5363 94.8716 41.2154H98.4843V34.7506C98.3757 30.7032 96.9903 27.8239 92.7257 27.8239ZM91.5305 38.1731C90.444 38.4719 89.8464 38.0645 89.8464 37.3854C89.8464 36.3803 90.9329 35.8914 92.4269 35.8914C93.1332 35.8914 93.7308 36.0001 93.7308 36.0001C93.7036 36.3803 92.7257 37.8743 91.5305 38.1731ZM106.226 24.1569H111.007V41.2425H106.226C106.226 41.1611 106.226 24.1569 106.226 24.1569ZM116.276 34.6962C116.276 33.501 117.363 32.4145 119.346 32.4145C121.519 32.4145 123.311 33.501 123.719 33.7183V29.1278C123.719 29.1278 122.334 27.8239 118.938 27.8239C115.353 27.8239 112.392 29.9155 112.392 34.4789C112.392 39.0423 115.081 41.5413 118.938 41.5413C121.926 41.5413 123.8 39.8572 123.8 39.8572V35.484C123.203 35.7828 121.627 36.8693 119.427 36.8693C117.064 36.9779 116.276 35.8914 116.276 34.6962ZM133.362 27.8239C130.591 27.8239 129.586 30.4044 129.396 30.8934C129.206 31.3823 129.097 31.5996 128.907 31.5996C128.608 31.5996 128.798 31.002 128.907 30.7032C129.097 29.997 129.613 28.3129 129.613 26.1398C129.613 24.6459 129.423 24.1569 129.423 24.1569H125.349V41.2425H130.129V34.6962C130.129 33.6097 130.537 31.8169 131.732 31.8169C132.737 31.8169 133.036 32.5232 133.036 33.99V41.2425H137.817V34.2888C137.626 30.9205 137.137 27.8239 133.362 27.8239ZM139.229 28.1227V41.2425H144.01V28.1227C144.01 28.1227 143.222 28.6117 141.619 28.6117C140.017 28.5302 139.229 28.1227 139.229 28.1227Z" fill="#B0B7C3"/>
<path d="M141.62 27.7424C143.21 27.7424 144.499 26.8911 144.499 25.841C144.499 24.7909 143.21 23.9396 141.62 23.9396C140.03 23.9396 138.74 24.7909 138.74 25.841C138.74 26.8911 140.03 27.7424 141.62 27.7424Z" fill="#B0B7C3"/>
<path d="M99.9785 28.1228V41.2426H104.732V28.1228C104.732 28.1228 103.944 28.6117 102.342 28.6117C102.342 28.5303 99.9785 28.1228 99.9785 28.1228Z" fill="#B0B7C3"/>
<path d="M102.342 27.7424C103.932 27.7424 105.221 26.8911 105.221 25.841C105.221 24.7909 103.932 23.9396 102.342 23.9396C100.752 23.9396 99.4625 24.7909 99.4625 25.841C99.4625 26.8911 100.752 27.7424 102.342 27.7424Z" fill="#B0B7C3"/>
</svg>
