<svg width="196" height="66" viewBox="0 0 196 66" fill="none" xmlns="http://www.w3.org/2000/svg">
<rect width="196" height="66" rx="10" fill="white"/>
<g clip-path="url(#clip0_2_9386)">
<path d="M75.2227 42.1896L76.8694 38.5264C78.6478 39.7896 81.0191 40.4843 83.3903 40.4843C85.1029 40.4843 86.2227 39.8528 86.2227 38.9054C86.2227 36.1896 75.8813 38.337 75.8155 31.5159C75.8155 28.0422 78.9771 25.4528 83.5221 25.4528C86.2227 25.4528 88.9233 26.0843 90.8334 27.537L89.3185 31.2633C87.54 30.1896 85.3664 29.4317 83.3245 29.4317C81.9412 29.4317 80.9532 30.0633 80.9532 30.8843C80.9532 33.537 91.3604 32.0843 91.4921 38.5896C91.4921 42.1264 88.3963 44.5896 83.9173 44.5896C80.4921 44.5264 77.528 43.7685 75.2227 42.1896Z" fill="#B0B7C3"/>
<path d="M138.522 37.2001C137.666 38.5896 136.151 39.537 134.372 39.537C131.738 39.537 129.63 37.5159 129.63 34.9896C129.63 32.4633 131.738 30.4422 134.372 30.4422C136.151 30.4422 137.666 31.3896 138.522 32.7791L143.067 30.3791C141.354 27.4738 138.127 25.4528 134.372 25.4528C128.839 25.4528 124.426 29.7475 124.426 34.9896C124.426 40.2317 128.905 44.5264 134.372 44.5264C138.127 44.5264 141.354 42.5686 143.067 39.6001L138.522 37.2001Z" fill="#B0B7C3"/>
<path d="M99.3305 17.4949H93.6658V44.2107H99.3305V17.4949Z" fill="#B0B7C3"/>
<path d="M145.241 17.4949V44.1475H150.971V36.1896L157.69 44.1475H165.001L156.438 34.6738L164.343 25.7686H157.426L150.971 33.158V17.4949H145.241Z" fill="#B0B7C3"/>
<path d="M116.259 37.2633C115.402 38.5896 113.756 39.537 111.846 39.537C109.211 39.537 107.103 37.516 107.103 34.9896C107.103 32.4633 109.211 30.4423 111.846 30.4423C113.756 30.4423 115.468 31.4528 116.259 32.7791V37.2633ZM116.259 25.7686V27.916C115.337 26.4002 113.031 25.3896 110.594 25.3896C105.588 25.3896 101.636 29.6212 101.636 34.9265C101.636 40.2318 105.588 44.5265 110.594 44.5265C113.031 44.5265 115.337 43.4528 116.259 42.0002V44.1475H121.923V25.7686H116.259Z" fill="#B0B7C3"/>
<path d="M40.0489 37.2633C40.0489 39.0948 38.468 40.6106 36.5579 40.6106C34.6477 40.6106 33.001 39.0948 33.001 37.2633C33.001 35.4317 34.5818 33.9159 36.492 33.9159H39.983V37.2633H40.0489Z" fill="#B0B7C3"/>
<path d="M41.8271 37.2633C41.8271 35.4317 43.408 33.9159 45.3182 33.9159C47.2283 33.9159 48.8092 35.3685 48.8092 37.2633V45.6633C48.8092 47.4948 47.2283 49.0106 45.3182 49.0106C43.408 49.0106 41.8271 47.4948 41.8271 45.6633V37.2633Z" fill="#B0B7C3"/>
<path d="M45.3182 23.7474C43.408 23.7474 41.8271 22.2316 41.8271 20.4C41.8271 18.5684 43.408 17.0526 45.3182 17.0526C47.2283 17.0526 48.8092 18.5684 48.8092 20.4V23.7474H45.3182Z" fill="#B0B7C3"/>
<path d="M45.3183 25.4526C47.2285 25.4526 48.8094 26.9684 48.8094 28.8C48.8094 30.6316 47.2285 32.1474 45.3183 32.1474H36.492C34.5818 32.1474 33.001 30.6316 33.001 28.8C33.001 26.9684 34.5818 25.4526 36.492 25.4526H45.3183Z" fill="#B0B7C3"/>
<path d="M59.3484 28.8C59.3484 26.9684 60.9292 25.4526 62.8394 25.4526C64.7496 25.4526 66.3304 26.9684 66.3304 28.8C66.3304 30.6316 64.7496 32.1474 62.8394 32.1474H59.3484V28.8Z" fill="#B0B7C3"/>
<path d="M57.6358 28.8C57.6358 30.6316 56.055 32.1474 54.1448 32.1474C52.2346 32.1474 50.6538 30.6316 50.6538 28.8V20.3369C50.6538 18.5053 52.2346 16.9895 54.1448 16.9895C56.055 16.9895 57.6358 18.5053 57.6358 20.3369V28.8Z" fill="#B0B7C3"/>
<path d="M54.1448 42.2527C56.055 42.2527 57.6358 43.7685 57.6358 45.6001C57.6358 47.4316 56.055 48.9474 54.1448 48.9474C52.2346 48.9474 50.6538 47.4316 50.6538 45.6001V42.2527H54.1448Z" fill="#B0B7C3"/>
<path d="M54.1448 40.6106C52.2346 40.6106 50.6538 39.0948 50.6538 37.2633C50.6538 35.4317 52.2346 33.9159 54.1448 33.9159H62.9712C64.8813 33.9159 66.4622 35.4317 66.4622 37.2633C66.4622 39.0948 64.8813 40.6106 62.9712 40.6106H54.1448Z" fill="#B0B7C3"/>
</g>
<defs>
<clipPath id="clip0_2_9386">
<rect width="132" height="42" fill="white" transform="translate(33.001 12)"/>
</clipPath>
</defs>
</svg>
