<svg width="196" height="66" viewBox="0 0 196 66" fill="none" xmlns="http://www.w3.org/2000/svg">
<rect width="196" height="66" rx="10" fill="white"/>
<g clip-path="url(#clip0_2_9420)">
<path d="M55.0009 15C45.06 15 37.001 23.0588 37.001 32.9997C37.001 42.9416 45.06 51 55.0009 51C64.9422 51 73.0008 42.9416 73.0008 32.9997C73.0008 23.0595 64.9426 15.0009 55.0007 15.0009L55.0009 15ZM63.2555 40.9607C62.9323 41.491 62.2414 41.6571 61.7129 41.334C57.486 38.7507 52.1658 38.1671 45.9002 39.5984C45.2964 39.7368 44.6946 39.3583 44.5571 38.7547C44.4188 38.151 44.7956 37.5491 45.4009 37.4116C52.2576 35.844 58.139 36.5187 62.8835 39.4178C63.4122 39.7424 63.5799 40.4324 63.2553 40.9611L63.2555 40.9607ZM65.4587 36.0602C65.0516 36.7208 64.1879 36.928 63.5283 36.5224C58.691 33.5489 51.3148 32.6876 45.592 34.4248C44.8498 34.6489 44.0659 34.2307 43.8406 33.4898C43.6171 32.7476 44.0356 31.9652 44.7765 31.7395C51.3136 29.756 59.4401 30.7168 64.9963 34.1311C65.6562 34.5374 65.8647 35.4015 65.4585 36.0605L65.4587 36.0602ZM65.6478 30.9567C59.8457 27.5109 50.2752 27.1941 44.7363 28.8751C43.8469 29.1449 42.9063 28.6428 42.6367 27.7534C42.3672 26.8635 42.8689 25.9236 43.759 25.6532C50.1172 23.723 60.687 24.0959 67.3661 28.0609C68.1661 28.5357 68.4285 29.569 67.9544 30.3679C67.4815 31.1679 66.4455 31.4317 65.648 30.9567H65.6478ZM85.9728 31.617C82.8649 30.8758 82.3116 30.3557 82.3116 29.2627C82.3116 28.2301 83.2838 27.5352 84.7295 27.5352C86.1309 27.5352 87.5205 28.0629 88.9774 29.1492C89.0215 29.1821 89.0767 29.1952 89.1311 29.1866C89.1855 29.1784 89.2336 29.1486 89.2655 29.1036L90.783 26.9645C90.8453 26.8764 90.8283 26.755 90.7443 26.6877C89.0103 25.2964 87.0578 24.6199 84.7755 24.6199C81.4199 24.6199 79.0759 26.6337 79.0759 29.515C79.0759 32.6048 81.0979 33.6989 84.592 34.5434C87.5659 35.2284 88.0678 35.8023 88.0678 36.8282C88.0678 37.9651 87.0529 38.6718 85.4195 38.6718C83.6054 38.6718 82.1257 38.0607 80.4705 36.6273C80.4294 36.5918 80.3731 36.5757 80.3211 36.5787C80.2663 36.5832 80.2162 36.6086 80.1814 36.6505L78.4799 38.6754C78.4085 38.7595 78.4176 38.885 78.5001 38.9577C80.426 40.677 82.7946 41.5851 85.3507 41.5851C88.9667 41.5851 91.3033 39.6094 91.3033 36.5514C91.3098 33.9699 89.7644 32.5406 85.9792 31.6198L85.9728 31.617ZM99.484 28.5519C97.9167 28.5519 96.6311 29.1692 95.571 30.4341V29.0103C95.571 28.8979 95.4799 28.8064 95.3677 28.8064H92.5848C92.4724 28.8064 92.3815 28.8979 92.3815 29.0103V44.8305C92.3815 44.9429 92.4724 45.0345 92.5848 45.0345H95.3677C95.4799 45.0345 95.571 44.9429 95.571 44.8305V39.8368C96.6313 41.0267 97.9171 41.6081 99.484 41.6081C102.396 41.6081 105.344 39.3663 105.344 35.0807C105.349 30.7942 102.4 28.5517 99.4872 28.5517L99.484 28.5519ZM102.108 35.0807C102.108 37.2631 100.764 38.7859 98.8394 38.7859C96.9365 38.7859 95.5011 37.1938 95.5011 35.0807C95.5011 32.9679 96.9365 31.3756 98.8394 31.3756C100.733 31.3754 102.109 32.9333 102.109 35.0805L102.108 35.0807ZM112.901 28.5519C109.15 28.5519 106.212 31.4398 106.212 35.1274C106.212 38.7747 109.13 41.6324 112.855 41.6324C116.619 41.6324 119.566 38.7541 119.566 35.0807C119.566 31.4201 116.638 28.5523 112.9 28.5523L112.901 28.5519ZM112.901 38.8076C110.906 38.8076 109.402 37.2048 109.402 35.0797C109.402 32.9455 110.854 31.3968 112.855 31.3968C114.862 31.3968 116.376 32.9997 116.376 35.1263C116.376 37.26 114.915 38.8076 112.901 38.8076H112.901ZM127.575 28.8064H124.512V25.6755C124.512 25.5633 124.422 25.4718 124.309 25.4718H121.527C121.414 25.4718 121.323 25.5633 121.323 25.6755V28.8064H119.985C119.873 28.8064 119.782 28.8979 119.782 29.0104V31.402C119.782 31.5142 119.873 31.606 119.985 31.606H121.323V37.7944C121.323 40.2952 122.568 41.5632 125.023 41.5632C126.021 41.5632 126.849 41.3571 127.629 40.9145C127.693 40.879 127.732 40.8107 127.732 40.738V38.4605C127.732 38.3902 127.696 38.3238 127.635 38.2871C127.575 38.249 127.499 38.2471 127.437 38.2778C126.901 38.5476 126.383 38.672 125.804 38.672C124.911 38.672 124.512 38.2666 124.512 37.3581V31.6071H127.575C127.687 31.6071 127.778 31.5155 127.778 31.4031V29.0117C127.782 28.8992 127.692 28.8077 127.578 28.8077L127.575 28.8064ZM138.245 28.8186V28.4341C138.245 27.3028 138.678 26.7984 139.651 26.7984C140.231 26.7984 140.697 26.9136 141.219 27.0877C141.283 27.1079 141.35 27.0978 141.403 27.0593C141.456 27.0208 141.487 26.9592 141.487 26.8938V24.5488C141.487 24.4592 141.429 24.3798 141.343 24.3534C140.791 24.1894 140.086 24.0211 139.03 24.0211C136.459 24.0211 135.101 25.4685 135.101 28.2054V28.7943H133.764C133.652 28.7943 133.56 28.8859 133.56 28.9981V31.402C133.56 31.5142 133.652 31.606 133.764 31.606H135.101V41.1513C135.101 41.2637 135.191 41.3553 135.304 41.3553H138.087C138.199 41.3553 138.291 41.2637 138.291 41.1513V31.6066H140.889L144.869 41.1496C144.417 42.1523 143.973 42.3518 143.366 42.3518C142.876 42.3518 142.36 42.2054 141.832 41.9165C141.782 41.8892 141.723 41.8847 141.67 41.9013C141.617 41.92 141.572 41.9595 141.549 42.0111L140.606 44.0804C140.561 44.1782 140.6 44.293 140.694 44.3437C141.678 44.8769 142.567 45.1046 143.666 45.1046C145.721 45.1046 146.856 44.1474 147.858 41.5724L152.685 29.0972C152.71 29.0344 152.702 28.9635 152.664 28.9078C152.626 28.8526 152.564 28.8193 152.496 28.8193H149.6C149.513 28.8193 149.435 28.8745 149.407 28.956L146.439 37.4329L143.188 28.9504C143.159 28.8715 143.083 28.8193 142.998 28.8193H138.244L138.245 28.8186ZM132.058 28.8064H129.276C129.163 28.8064 129.072 28.8979 129.072 29.0104V41.1513C129.072 41.2638 129.163 41.3553 129.276 41.3553H132.058C132.171 41.3553 132.262 41.2638 132.262 41.1513V29.0112C132.262 28.9844 132.257 28.9578 132.247 28.933C132.237 28.9082 132.222 28.8857 132.203 28.8668C132.184 28.8478 132.161 28.8328 132.136 28.8226C132.112 28.8124 132.085 28.8071 132.058 28.8072L132.058 28.8064ZM130.683 23.2783C129.58 23.2783 128.686 24.1707 128.686 25.2732C128.686 26.3762 129.581 27.2698 130.683 27.2698C131.785 27.2698 132.679 26.3762 132.679 25.2732C132.679 24.1709 131.784 23.2783 130.684 23.2783H130.683ZM155.062 32.7099C153.96 32.7099 153.103 31.8254 153.103 30.7514C153.103 29.6773 153.971 28.7827 155.072 28.7827C156.173 28.7827 157.03 29.667 157.03 30.7402C157.03 31.8143 156.162 32.7099 155.061 32.7099H155.062ZM155.072 28.9775C154.069 28.9775 153.31 29.7749 153.31 30.7514C153.31 31.7274 154.064 32.5141 155.062 32.5141C156.065 32.5141 156.825 31.7173 156.825 30.7402C156.825 29.7642 156.071 28.9775 155.073 28.9775H155.072ZM155.507 30.9416L156.06 31.7171H155.593L155.095 31.0057H154.666V31.7171H154.275V29.6614H155.192C155.669 29.6614 155.983 29.9058 155.983 30.3172C155.985 30.6542 155.79 30.8601 155.508 30.9416H155.507ZM155.176 30.0141H154.666V30.6643H155.176C155.43 30.6643 155.582 30.5399 155.582 30.3389C155.582 30.1274 155.429 30.0141 155.176 30.0141Z" fill="#B0B7C3"/>
</g>
<defs>
<clipPath id="clip0_2_9420">
<rect width="121" height="36" fill="white" transform="translate(37.001 15)"/>
</clipPath>
</defs>
</svg>
