<svg width="196" height="66" viewBox="0 0 196 66" fill="none" xmlns="http://www.w3.org/2000/svg">
<rect width="196" height="66" rx="10" fill="white"/>
<g clip-path="url(#clip0_2_9319)">
<path fill-rule="evenodd" clip-rule="evenodd" d="M61.0122 25.6236H67.447V44.279H72.7941V25.6236H79.2297V20.9011H61.0122V25.6236ZM74.3354 44.279H79.9547L81.5561 39.5572H88.1108L89.6528 44.279H95.1817L87.3865 20.9019H81.5404L74.3354 44.279ZM86.5672 35.3084H82.6646L84.626 29.6818L86.5672 35.3084ZM95.6355 44.279H100.801V35.8633H104.518C105.302 35.8633 106.213 35.7161 106.678 36.374C107.144 37.0319 107.1 38.1771 107.084 39.361C107.066 40.5448 107.071 41.7656 107.332 42.6367C107.59 43.5077 108.057 44.279 108.733 44.279H113.399C112.864 43.6977 112.483 42.9826 112.297 42.2039C112.113 41.4207 112.139 40.5673 112.172 39.6215C112.205 38.6766 112.245 37.6399 112.139 36.7898C112.033 35.9381 111.784 35.2738 111.375 34.7478C110.962 34.2214 110.406 33.8338 109.778 33.6347C110.763 32.9053 111.59 31.9345 112.093 30.9051C112.594 29.8765 112.77 28.7899 112.837 27.7138C112.904 26.6378 112.86 25.573 112.531 24.5612C112.2 23.5495 111.585 22.59 110.757 21.9321C109.921 21.27 108.897 20.9082 107.843 20.9019H95.6347V44.279H95.6355ZM106.801 26.0748C107.422 26.4986 107.801 27.2764 107.792 28.0637C107.782 28.4659 107.681 28.8601 107.497 29.2148C107.313 29.5695 107.051 29.8746 106.732 30.1057C106.084 30.5657 105.213 30.4676 104.403 30.4676H100.797V25.848H104.601C105.36 25.848 106.178 25.651 106.801 26.0748ZM115.543 25.0389C114.767 26.2228 114.194 27.6125 113.883 29.3899C113.573 31.1673 113.523 33.3331 113.803 35.2231C114.081 37.1139 114.69 38.728 115.43 39.9794C116.17 41.2309 117.041 42.1179 117.989 42.8755C118.939 43.6331 119.961 44.2605 121.116 44.6127C122.279 44.9598 123.502 45.0464 124.7 44.8669C125.853 44.6899 126.876 44.2581 127.673 43.884C128.469 43.5093 129.041 43.1924 129.577 42.8208L130.484 44.2782H133.838L133.831 31.1713H124.223V35.7443H128.728C128.904 36.5333 128.798 37.397 128.41 38.116C128.022 38.8342 127.35 39.4076 126.396 39.8129C125.442 40.2175 124.209 40.4531 123.008 40.0775C121.808 39.702 120.641 38.7151 119.873 37.5852C119.106 36.4568 118.736 35.1845 118.572 33.7763C118.412 32.3688 118.457 30.8247 118.784 29.4783C119.11 28.132 119.719 26.982 120.481 26.1536C121.246 25.3252 122.166 24.8194 123.325 24.603C124.482 24.3867 125.879 24.4615 126.81 24.9971C127.742 25.5327 128.207 26.5284 128.476 27.1614C128.744 27.7943 128.816 28.0637 128.824 28.3404H133.651C133.579 27.3061 133.294 26.2951 132.719 25.1403C132.142 23.9854 131.277 22.6881 130.047 21.7737C128.816 20.8593 127.223 20.3293 125.744 20.1282C124.385 19.9365 123.002 20.0308 121.679 20.4057C120.456 20.7555 119.366 21.3273 118.332 22.101C117.299 22.8771 116.319 23.8551 115.543 25.0389ZM151.694 44.279V39.5572H141.044V34.1334L150.196 34.1141L150.198 29.8322H141.044V25.6244H151.694V20.9019L135.716 20.9051L135.742 44.279H151.694ZM152.464 25.6236H158.901V44.279H164.248V25.6236H170.683V20.9011H152.464V25.6236ZM166.827 43.2302H167.122V43.1715C167.079 43.1723 167.019 43.1578 166.994 43.0991L166.77 42.7163C166.983 42.6463 167.068 42.364 166.848 42.2136C166.752 42.1606 166.669 42.1525 166.547 42.1493H166.003V42.2015C166.064 42.1863 166.173 42.2329 166.15 42.3142C166.146 42.5852 166.163 42.8393 166.138 43.1272C166.091 43.1884 166.069 43.1651 166.008 43.1715V43.2302H166.54V43.1715C166.483 43.186 166.37 43.1409 166.393 43.0589V42.7163H166.54L166.827 43.2302ZM166.392 42.6624V42.2208C166.522 42.2144 166.722 42.241 166.722 42.3994C166.733 42.463 166.722 42.6463 166.571 42.6583C166.516 42.6672 166.451 42.6616 166.392 42.6624ZM166.52 43.7183C166.706 43.7183 166.909 43.6645 167.103 43.5222C167.577 43.1168 167.648 42.611 167.328 42.0922C166.934 41.5975 166.442 41.5244 165.932 41.8582C165.454 42.2627 165.384 42.7686 165.705 43.2881C165.933 43.6018 166.232 43.7151 166.52 43.7183ZM166.52 43.6058C166.355 43.6058 166.174 43.5575 166.002 43.4312C165.577 43.0694 165.513 42.6198 165.801 42.1517C166.149 41.715 166.588 41.6515 167.037 41.9466C167.462 42.307 167.526 42.7597 167.24 43.2222C167.037 43.5013 166.77 43.6034 166.52 43.6058Z" fill="#B0B7C3"/>
<path fill-rule="evenodd" clip-rule="evenodd" d="M43.0062 28.4784C42.215 28.0234 41.3013 27.7789 40.3876 27.7789C39.4738 27.7789 38.5601 28.0234 37.7689 28.4784C36.9735 28.938 36.3124 29.597 35.8512 30.3899C35.3932 31.1841 35.1513 32.0839 35.1495 33C35.1495 33.9116 35.3947 34.8224 35.8512 35.6109C36.3085 36.3996 36.977 37.0667 37.7689 37.5217C38.5608 37.9766 39.4738 38.2211 40.3876 38.2211C41.3013 38.2211 42.215 37.9774 43.0062 37.5217C43.7973 37.0659 44.4666 36.3996 44.9238 35.6109C45.3821 34.8164 45.624 33.9164 45.6255 33C45.6255 32.0892 45.3811 31.1785 44.9238 30.3899C44.4627 29.597 43.8016 28.938 43.0062 28.4784Z" fill="#B0B7C3"/>
<path fill-rule="evenodd" clip-rule="evenodd" d="M54.0186 24.9994C52.6625 22.5819 50.6762 20.5383 48.3274 19.1431C45.9785 17.7478 43.2647 17 40.5517 17C37.8386 17 35.1264 17.7478 32.7767 19.1431C30.4155 20.5511 28.4532 22.57 27.0847 24.9994C25.7278 27.4169 25.001 30.2083 25.001 32.9996C25.001 35.7909 25.7278 38.5823 27.0847 40.9998C28.4527 43.4296 30.4151 45.4486 32.7767 46.8561C35.1421 48.2565 37.8226 48.9956 40.5517 49C43.2647 49 45.9777 48.2522 48.3274 46.8561C50.677 45.4609 52.6625 43.4172 54.0186 40.9998C55.3748 38.5823 56.1016 35.7909 56.1016 32.9996C56.1016 30.2083 55.3748 27.4161 54.0186 24.9994ZM49.462 38.2903C48.5602 39.8922 47.2664 41.2233 45.7095 42.1512C44.1495 43.074 42.3822 43.5611 40.5829 43.5641C38.7947 43.5641 37.0065 43.0715 35.457 42.1512C33.9083 41.2308 32.5989 39.8837 31.7044 38.2903C30.81 36.6968 30.3312 34.8563 30.3312 33.0164C30.3312 31.1758 30.81 29.3353 31.7044 27.7418C32.5989 26.1484 33.9083 24.8004 35.457 23.8809C37.0165 22.9579 38.7837 22.4708 40.5829 22.468C42.3718 22.468 44.16 22.9606 45.7095 23.8809C47.2662 24.8091 48.5599 26.1401 49.462 27.7418C50.3595 29.3466 50.8332 31.165 50.8362 33.0164C50.8328 34.8676 50.3591 36.6856 49.462 38.2903Z" fill="#B0B7C3"/>
</g>
<defs>
<clipPath id="clip0_2_9319">
<rect width="146" height="32" fill="white" transform="translate(25.001 17)"/>
</clipPath>
</defs>
</svg>
