<svg width="28" height="24" viewBox="0 0 28 24" fill="none" xmlns="http://www.w3.org/2000/svg">
<path fill-rule="evenodd" clip-rule="evenodd" d="M28.401 3.59963C27.3358 4.06867 26.2074 4.37833 25.052 4.51863C26.2683 3.78744 27.179 2.64088 27.616 1.29064C26.466 1.95868 25.2134 2.43174 23.909 2.69063C22.2732 0.942038 19.7349 0.370918 17.5079 1.25039C15.2808 2.12987 13.8176 4.28122 13.818 6.67564C13.8181 7.12519 13.8688 7.57234 13.9692 8.00957C9.2794 7.78393 4.90714 5.57351 1.94497 1.93063C1.4218 2.81947 1.14882 3.83328 1.15496 4.86464C1.15362 6.81554 2.12714 8.63769 3.74928 9.72084C2.8229 9.6915 1.91695 9.44114 1.10696 8.99064L1.10696 9.06264C1.10697 11.8426 3.06449 14.2356 5.78715 14.7861C4.93076 15.0166 4.03335 15.0506 3.16196 14.8856C3.93065 17.2626 6.12325 18.8897 8.62097 18.9366C6.55784 20.5576 4.00973 21.4381 1.38596 21.4366C0.923131 21.4352 0.460743 21.4078 0.000976562 21.3546C2.67548 23.0671 5.78522 23.9761 8.96097 23.9736C19.696 23.9736 25.561 15.0866 25.561 7.39163C25.561 7.14363 25.561 6.89163 25.543 6.64463C26.6884 5.82047 27.6764 4.79722 28.46 3.62363L28.401 3.59963Z" fill="url(#paint0_linear_2_9095)"/>
<defs>
<linearGradient id="paint0_linear_2_9095" x1="33.796" y1="-4.3981" x2="-67.5549" y2="29.0178" gradientUnits="userSpaceOnUse">
<stop stop-color="#7342E4"/>
<stop offset="1" stop-color="#FCD9FB"/>
</linearGradient>
</defs>
</svg>
